<svg width="64" height="109" viewBox="0 0 64 109" fill="none" xmlns="http://www.w3.org/2000/svg">
<path d="M35.05 6.05C36.95 11.55 38.75 17.15 40.45 22.85C42.25 28.45 43.95 34.05 45.55 39.65C47.15 45.35 49.35 53.45 52.15 63.95C55.05 74.45 58.55 87.3 62.65 102.5C63.05 105.4 62.3 107.1 60.4 107.6C58.4 108.1 56.95 107.3 56.05 105.2L46.9 72.8L16.6 73.1L8.2 103.55C7.6 106.55 6.2 107.65 4 106.85C1.7 106.25 0.9 104.3 1.6 101L29.35 4.7C29.75 2.19999 30.65 1.04999 32.05 1.25C33.25 1.35 34.25 2.95 35.05 6.05ZM44.8 66.35C43.1 57.15 41.15 48.4 38.95 40.1C36.85 31.7 34.6 23.7 32.2 16.1L19.6 66.2L44.8 66.35Z" fill="white"/>
</svg>
