<svg width="443" height="327" viewBox="0 0 443 327" fill="none" xmlns="http://www.w3.org/2000/svg">
<g filter="url(#filter0_d_6_59)">
<path d="M403 117.128C434 117.128 462 193.128 403 209.128C409 260 374 284 323 260C329 307 267 327 230 298C194 336 90 319 79 248C6 260 -13 199 21 156.128C-15.0001 84.1276 71 24.1276 133 61.1276C143 -20.8725 265 -11.8725 285 47.1275C335 8.12753 413 47.1276 403 117.128Z" fill="white"/>
<path d="M403 117.128C434 117.128 462 193.128 403 209.128C409 260 374 284 323 260C329 307 267 327 230 298C194 336 90 319 79 248C6 260 -13 199 21 156.128C-15.0001 84.1276 71 24.1276 133 61.1276C143 -20.8725 265 -11.8725 285 47.1275C335 8.12753 413 47.1276 403 117.128Z" stroke="#DBD3D3"/>
</g>
<defs>
<filter id="filter0_d_6_59" x="0.173836" y="0.735909" width="441.857" height="325.496" filterUnits="userSpaceOnUse" color-interpolation-filters="sRGB">
<feFlood flood-opacity="0" result="BackgroundImageFix"/>
<feColorMatrix in="SourceAlpha" type="matrix" values="0 0 0 0 0 0 0 0 0 0 0 0 0 0 0 0 0 0 127 0" result="hardAlpha"/>
<feOffset dy="4"/>
<feGaussianBlur stdDeviation="2"/>
<feComposite in2="hardAlpha" operator="out"/>
<feColorMatrix type="matrix" values="0 0 0 0 0 0 0 0 0 0 0 0 0 0 0 0 0 0 0.25 0"/>
<feBlend mode="normal" in2="BackgroundImageFix" result="effect1_dropShadow_6_59"/>
<feBlend mode="normal" in="SourceGraphic" in2="effect1_dropShadow_6_59" result="shape"/>
</filter>
</defs>
</svg>
