<svg width="444" height="347" viewBox="0 0 444 347" fill="none" xmlns="http://www.w3.org/2000/svg">
<g filter="url(#filter0_d_1_17)">
<path d="M159.017 57.2129C101.509 2.44548 51.4913 44.7549 55.1047 95.8989C23.1563 73.5975 -19.9698 147.244 23.1563 168.1C-0.459867 211.916 8.70273 237.231 45.5593 256.151C39.7779 332.559 124.331 361.667 186.481 301.268C237.791 346.385 297.286 359.386 339.924 281.523C397.738 281.523 438.997 247.761 415.805 173.824C433.724 184.042 460.09 108.643 410.522 108.643C376.472 -3.43523 259.294 -40.0927 159.017 57.2129Z" fill="white"/>
<path d="M159.017 57.2129C101.509 2.44548 51.4913 44.7549 55.1047 95.8989C23.1563 73.5975 -19.9698 147.244 23.1563 168.1C-0.459867 211.916 8.70273 237.231 45.5593 256.151C39.7779 332.559 124.331 361.667 186.481 301.268C237.791 346.385 297.286 359.386 339.924 281.523C397.738 281.523 438.997 247.761 415.805 173.824C433.724 184.042 460.09 108.643 410.522 108.643C376.472 -3.43523 259.294 -40.0927 159.017 57.2129Z" stroke="#DBD3D3"/>
</g>
<defs>
<filter id="filter0_d_1_17" x="0.499939" y="0.499649" width="443.053" height="345.548" filterUnits="userSpaceOnUse" colorInterpolationFilters="sRGB">
<feFlood floodOpacity="0" result="BackgroundImageFix"/>
<feColorMatrix in="SourceAlpha" type="matrix" values="0 0 0 0 0 0 0 0 0 0 0 0 0 0 0 0 0 0 127 0" result="hardAlpha"/>
<feOffset dy="4"/>
<feGaussianBlur stdDeviation="2"/>
<feComposite in2="hardAlpha" operator="out"/>
<feColorMatrix type="matrix" values="0 0 0 0 0 0 0 0 0 0 0 0 0 0 0 0 0 0 0.25 0"/>
<feBlend mode="normal" in2="BackgroundImageFix" result="effect1_dropShadow_1_17"/>
<feBlend mode="normal" in="SourceGraphic" in2="effect1_dropShadow_1_17" result="shape"/>
</filter>
</defs>
</svg>
