<svg width="465" height="260" viewBox="0 0 465 260" fill="none" xmlns="http://www.w3.org/2000/svg">
<g filter="url(#filter0_d_6_63)">
<path d="M148.183 223.009C98.8341 255.585 49.485 238.439 39.4324 194.719C-4.43336 184.432 -6.2611 124.423 33.9492 102.992C39.4324 30.9813 113.456 16.4078 183.824 42.1257C216.723 -6.73837 304.455 -14.4537 356.546 30.9813C403.153 12.9787 440.622 36.1249 440.622 87.5608C467.124 114.993 467.124 156.142 433.311 184.432C426 223.009 372.081 256.442 304.455 223.009C247.795 262.443 190.221 258.157 148.183 223.009Z" fill="white"/>
<path d="M148.183 223.009C98.8341 255.585 49.485 238.439 39.4324 194.719C-4.43336 184.432 -6.2611 124.423 33.9492 102.992C39.4324 30.9813 113.456 16.4078 183.824 42.1257C216.723 -6.73837 304.455 -14.4537 356.546 30.9813C403.153 12.9787 440.622 36.1249 440.622 87.5608C467.124 114.993 467.124 156.142 433.311 184.432C426 223.009 372.081 256.442 304.455 223.009C247.795 262.443 190.221 258.157 148.183 223.009Z" stroke="#DBD3D3"/>
</g>
<defs>
<filter id="filter0_d_6_63" x="0.602699" y="0.339233" width="463.565" height="259.161" filterUnits="userSpaceOnUse" color-interpolation-filters="sRGB">
<feFlood flood-opacity="0" result="BackgroundImageFix"/>
<feColorMatrix in="SourceAlpha" type="matrix" values="0 0 0 0 0 0 0 0 0 0 0 0 0 0 0 0 0 0 127 0" result="hardAlpha"/>
<feOffset dy="4"/>
<feGaussianBlur stdDeviation="2"/>
<feComposite in2="hardAlpha" operator="out"/>
<feColorMatrix type="matrix" values="0 0 0 0 0 0 0 0 0 0 0 0 0 0 0 0 0 0 0.25 0"/>
<feBlend mode="normal" in2="BackgroundImageFix" result="effect1_dropShadow_6_63"/>
<feBlend mode="normal" in="SourceGraphic" in2="effect1_dropShadow_6_63" result="shape"/>
</filter>
</defs>
</svg>
