<svg width="473" height="351" viewBox="0 0 473 351" fill="none" xmlns="http://www.w3.org/2000/svg">
<g filter="url(#filter0_d_5_57)">
<path d="M163 36.9999C137 -4 80.0002 10 80.0002 56C1 56 -25.9999 154 51 187C14.9999 259 101 319 163 282C173 364 295 355 315 296C365 335 443 296 433 226C464 226 492 150 433 134C453 83 407 36.9999 350 69C321 -12 228 -19 163 36.9999Z" fill="white"/>
<path d="M163 36.9999C137 -4 80.0002 10 80.0002 56C1 56 -25.9999 154 51 187C14.9999 259 101 319 163 282C173 364 295 355 315 296C365 335 443 296 433 226C464 226 492 150 433 134C453 83 407 36.9999 350 69C321 -12 228 -19 163 36.9999Z" stroke="#DBD3D3"/>
</g>
<defs>
<filter id="filter0_d_5_57" x="0.651245" y="0.0800781" width="471.38" height="350.312" filterUnits="userSpaceOnUse" color-interpolation-filters="sRGB">
<feFlood flood-opacity="0" result="BackgroundImageFix"/>
<feColorMatrix in="SourceAlpha" type="matrix" values="0 0 0 0 0 0 0 0 0 0 0 0 0 0 0 0 0 0 127 0" result="hardAlpha"/>
<feOffset dy="4"/>
<feGaussianBlur stdDeviation="2"/>
<feComposite in2="hardAlpha" operator="out"/>
<feColorMatrix type="matrix" values="0 0 0 0 0 0 0 0 0 0 0 0 0 0 0 0 0 0 0.25 0"/>
<feBlend mode="normal" in2="BackgroundImageFix" result="effect1_dropShadow_5_57"/>
<feBlend mode="normal" in="SourceGraphic" in2="effect1_dropShadow_5_57" result="shape"/>
</filter>
</defs>
</svg>
